<?xml version="1.0" standalone="no"?>
<!DOCTYPE svg PUBLIC "-//W3C//DTD SVG 20010904//EN"
 "http://www.w3.org/TR/2001/REC-SVG-20010904/DTD/svg10.dtd">
<svg version="1.0" xmlns="http://www.w3.org/2000/svg"
 width="256.000000pt" height="256.000000pt" viewBox="0 0 256.000000 256.000000"
 preserveAspectRatio="xMidYMid meet">
<metadata>
Created by potrace 1.11, written by Peter Selinger 2001-2013
</metadata>
<g transform="translate(0.000000,256.000000) scale(0.100000,-0.100000)"
fill="#000000" stroke="none">
<path d="M620 2525 c-124 -24 -192 -64 -222 -132 -32 -73 -5 -149 86 -239 22
-22 124 -98 141 -105 6 -2 38 -19 73 -37 53 -28 62 -35 51 -48 -8 -10 -15 -11
-24 -4 -10 8 -15 8 -21 -1 -4 -7 -3 -9 3 -6 6 4 16 0 23 -8 9 -11 9 -15 1 -15
-7 0 -10 -4 -6 -9 3 -5 1 -12 -5 -16 -6 -4 -7 -11 -4 -17 4 -7 2 -8 -5 -4 -8
5 -10 0 -7 -18 3 -16 1 -24 -5 -20 -5 3 -9 -7 -9 -23 0 -67 -2 -73 -16 -73
-11 0 -13 -6 -8 -22 6 -21 5 -22 -12 -9 -10 7 -7 3 7 -11 21 -20 23 -26 12
-37 -7 -7 -10 -17 -7 -23 5 -7 1 -9 -9 -5 -27 10 -19 -1 12 -17 16 -9 31 -13
33 -11 3 3 5 -2 5 -10 0 -11 -4 -12 -14 -4 -23 20 -14 -7 13 -36 14 -15 19
-25 11 -22 -9 3 -18 -1 -21 -9 -8 -21 -8 -24 5 -24 5 0 7 6 3 13 -5 8 -2 8 9
-2 13 -11 17 -11 17 -1 0 8 3 10 6 7 4 -4 2 -13 -5 -20 -9 -11 -8 -17 4 -27 8
-7 15 -9 15 -4 0 4 5 3 11 -3 8 -8 8 -16 0 -30 -10 -16 -11 -15 -5 7 7 28 2
26 -14 -6 -10 -18 -8 -21 9 -20 11 0 25 8 30 16 9 13 10 12 5 -2 -3 -10 1 -18
12 -21 16 -4 16 -5 0 -6 -11 -1 -15 -6 -12 -16 5 -11 1 -14 -12 -9 -15 5 -16
4 -5 -4 8 -6 20 -8 28 -5 7 3 13 -2 13 -12 0 -9 -4 -14 -8 -11 -5 3 -9 -1 -9
-8 0 -7 6 -13 13 -13 7 0 11 3 9 7 -2 3 0 12 6 20 6 11 9 6 9 -18 0 -24 4 -31
13 -26 9 6 9 4 -1 -8 -10 -13 -10 -17 0 -21 11 -4 10 -6 0 -6 -7 -1 -10 -6 -6
-13 4 -6 3 -8 -2 -5 -5 3 -21 -4 -34 -14 -22 -18 -22 -19 -3 -10 34 17 38 13
14 -13 -17 -18 -19 -26 -10 -31 7 -5 10 -4 5 3 -3 6 -2 13 4 17 6 3 9 -4 8
-18 -2 -22 -28 -35 -28 -14 0 6 -2 8 -5 5 -10 -9 7 -38 22 -38 9 0 13 -6 10
-15 -4 -8 -2 -17 3 -20 6 -4 10 1 10 9 0 9 5 16 10 16 7 0 7 -7 -1 -22 -10
-18 -9 -20 5 -15 10 4 15 3 11 -2 -3 -5 0 -11 6 -13 9 -3 8 -11 -1 -28 -12
-22 -12 -24 2 -12 13 10 18 8 32 -13 9 -14 20 -23 25 -21 4 3 8 -1 8 -9 0 -8
-5 -11 -10 -8 -6 3 -8 -7 -5 -25 2 -17 0 -28 -4 -25 -5 3 -9 -1 -7 -8 3 -27
-1 -39 -14 -39 -7 0 -23 -13 -37 -29 -13 -17 -28 -27 -33 -24 -6 3 -7 1 -3 -5
8 -13 -22 -44 -35 -37 -5 4 -9 1 -9 -5 0 -7 7 -10 15 -6 15 5 18 -1 18 -36 0
-10 5 -18 11 -19 6 0 0 -5 -14 -10 l-25 -10 24 -18 24 -18 -21 -21 c-11 -11
-23 -18 -26 -14 -3 3 -6 -2 -6 -12 0 -11 -4 -14 -12 -10 -7 5 -9 2 -6 -8 6
-15 -25 -51 -35 -41 -3 3 -4 -3 -3 -14 2 -10 -2 -24 -8 -32 -8 -11 -8 -13 1
-8 6 4 14 3 18 -3 3 -5 -2 -10 -12 -11 -14 0 -14 -2 5 -9 12 -5 22 -12 22 -16
0 -3 -7 -4 -15 -1 -8 4 -16 3 -19 -1 -3 -4 5 -9 17 -9 12 -1 24 3 28 8 4 7 9
5 12 -5 4 -9 3 -15 -1 -13 -4 1 -17 -8 -29 -21 -13 -12 -19 -22 -14 -22 5 0
17 7 25 16 9 8 16 11 16 5 0 -5 -5 -13 -10 -16 -6 -4 -7 -11 -4 -17 4 -7 2 -8
-4 -4 -7 4 -12 2 -12 -4 0 -6 -11 -16 -25 -22 -14 -6 -25 -19 -25 -29 0 -9 -7
-19 -15 -22 -8 -4 -12 -15 -10 -27 4 -19 2 -20 -12 -8 -10 8 -14 8 -10 1 4 -7
0 -16 -9 -21 -15 -9 -15 -10 4 -16 12 -4 22 -12 22 -17 0 -12 -13 -12 -26 1
-6 6 -9 -4 -9 -29 0 -22 3 -37 8 -34 4 2 7 13 7 24 0 11 4 18 9 14 6 -3 10
-13 10 -23 0 -26 6 -51 16 -59 4 -4 5 -2 1 4 -4 8 -1 13 9 13 9 0 13 5 10 10
-4 6 -12 7 -18 4 -9 -5 -9 -4 0 6 9 10 14 10 26 -1 12 -12 12 -15 -2 -26 -14
-11 -14 -12 -1 -13 9 0 21 5 28 10 6 6 10 7 7 4 -2 -4 3 -13 11 -21 16 -16 9
-37 -8 -27 -7 4 -8 2 -4 -5 4 -6 18 -9 32 -7 14 3 22 1 19 -5 -4 -5 -11 -7
-16 -4 -5 4 -9 1 -9 -4 0 -14 23 -14 37 0 9 9 10 6 6 -12 l-6 -24 22 25 c12
14 20 18 16 10 -3 -8 2 -5 11 8 9 12 40 39 68 59 28 21 54 42 58 48 5 6 8 6 8
-2 0 -7 5 -13 11 -13 5 0 7 5 4 10 -8 13 14 42 26 34 5 -3 9 0 9 6 0 14 51 56
63 52 5 -1 6 2 2 8 -3 5 13 76 35 157 23 82 44 155 46 163 2 8 10 40 19 70 9
30 17 60 18 65 25 107 63 232 69 229 4 -3 5 2 2 10 -7 19 7 21 26 4 8 -7 6 -3
-5 10 -18 22 -18 23 0 16 12 -5 16 -4 11 4 -5 8 -2 10 9 6 8 -4 23 0 32 7 12
10 15 10 9 1 -4 -7 -1 -12 9 -12 9 0 14 4 11 9 -4 5 2 8 11 6 10 -1 23 0 28 4
19 11 34 9 47 -7 11 -13 11 -14 -1 -7 -11 6 -13 4 -8 -7 3 -9 -2 -26 -10 -39
-9 -12 -11 -19 -5 -15 7 4 12 2 12 -6 0 -10 3 -9 9 2 6 8 8 17 5 21 -2 4 1 11
7 15 7 4 9 3 5 -4 -10 -16 17 -20 40 -5 18 11 23 11 34 -2 7 -8 9 -15 4 -15
-5 0 -2 -5 6 -10 13 -9 13 -10 0 -10 -11 0 -12 -2 -3 -8 7 -4 14 -17 16 -27 1
-11 6 -26 11 -34 5 -8 3 -16 -5 -22 -8 -5 -11 -9 -6 -9 4 0 1 -13 -8 -30 -8
-16 -15 -33 -14 -37 1 -4 0 -10 -1 -13 -1 -3 -3 -12 -5 -20 -2 -8 -7 -24 -11
-35 -7 -18 -6 -19 9 -6 10 8 20 11 24 7 3 -3 1 -6 -6 -6 -15 0 1 -17 42 -43
24 -16 26 -21 15 -35 -11 -14 -11 -15 5 -9 15 6 16 4 7 -13 -6 -11 -8 -20 -5
-20 3 0 -2 -11 -10 -24 -9 -14 -12 -27 -7 -30 6 -3 8 -22 6 -42 -3 -31 -1 -34
12 -23 13 10 17 10 24 -1 5 -8 6 -18 3 -24 -4 -5 1 -7 10 -3 8 3 21 -1 27 -9
7 -8 9 -14 5 -14 -4 0 -2 -7 5 -15 7 -9 10 -18 7 -22 -4 -3 -2 -12 4 -19 9
-10 7 -15 -5 -20 -9 -3 -13 -10 -10 -15 3 -5 1 -9 -5 -9 -5 0 -8 -11 -6 -25 1
-14 -2 -28 -6 -31 -5 -3 -9 -10 -9 -15 0 -6 6 -7 13 -3 7 5 6 0 -3 -11 -14
-17 -13 -18 5 -12 19 7 19 6 2 -7 -18 -14 -18 -14 2 -21 12 -4 21 -15 21 -27
0 -17 2 -18 15 -8 13 11 14 10 8 -6 -5 -16 -4 -17 8 -7 11 9 18 8 33 -3 10 -7
22 -11 27 -9 4 3 14 -4 22 -16 8 -11 18 -16 21 -11 4 7 16 6 34 -3 68 -33 63
-39 130 125 l61 151 -109 382 -108 382 36 11 c20 6 38 18 40 27 2 9 -8 57 -22
107 l-26 90 44 54 c80 99 114 192 114 315 0 156 -50 276 -162 386 -101 100
-221 153 -376 167 -22 2 -54 17 -85 41 -98 74 -287 153 -444 184 -100 19 -270
23 -351 8z m285 -120 c62 -8 92 -14 117 -24 13 -5 28 -9 33 -10 39 -5 195 -69
195 -80 0 -4 -15 -8 -32 -9 -90 -6 -254 -69 -294 -113 -10 -11 -21 -19 -26
-19 -6 0 -24 -16 -40 -35 -17 -19 -35 -32 -39 -29 -5 3 -6 -1 -3 -9 11 -29
-19 -28 -79 2 -135 68 -221 155 -215 220 8 90 170 136 383 106z m462 -330 c0
-8 -4 -12 -9 -9 -5 3 -6 10 -3 15 9 13 12 11 12 -6z m-17 -24 c8 -2 25 -3 38
-3 12 0 22 -5 22 -10 0 -5 -4 -6 -10 -3 -5 3 -10 -1 -10 -10 0 -9 5 -13 10
-10 6 3 10 2 10 -4 0 -12 -74 -40 -122 -45 -33 -4 -38 -2 -38 15 0 11 5 30 12
42 15 29 38 51 38 38 0 -6 4 -11 10 -11 5 0 7 8 4 18 -5 15 -4 15 8 2 7 -8 20
-17 28 -19z m103 -132 c3 7 5 7 3 -1 -5 -25 -67 -58 -95 -51 -14 3 -28 9 -31
13 -3 4 -12 9 -20 12 -9 3 -5 7 13 10 15 3 27 1 27 -3 0 -5 5 -9 11 -9 5 0 7
5 3 11 -4 6 1 9 12 8 11 -2 25 0 33 5 10 7 12 5 7 -5 -4 -8 -1 -6 6 3 8 11 15
13 19 6 5 -7 8 -7 12 1z m-760 -194 c6 -15 -10 -32 -20 -21 -4 3 -1 6 7 6 10
0 10 3 0 15 -7 9 -8 15 -2 15 5 0 12 -7 15 -15z m7 -87 c0 -5 -8 -8 -17 -8
-15 0 -16 2 -3 10 11 7 11 10 2 10 -7 0 -10 5 -6 11 6 11 23 -6 24 -23z m145
-258 c3 -6 -1 -7 -9 -4 -18 7 -21 14 -7 14 6 0 13 -4 16 -10z m32 -272 c-3 -8
-6 -5 -6 6 -1 11 2 17 5 13 3 -3 4 -12 1 -19z m-127 -546 c0 -4 -5 -13 -12
-20 -9 -9 -9 -12 0 -12 7 0 12 -7 12 -15 0 -8 -5 -15 -11 -15 -5 0 -8 4 -4 9
3 5 1 12 -4 15 -7 5 -8 23 -2 44 2 6 21 1 21 -6z m-80 -342 c0 -5 -5 -10 -11
-10 -5 0 -7 5 -4 10 3 6 8 10 11 10 2 0 4 -4 4 -10z m20 -24 c0 -2 -9 -6 -20
-9 -11 -3 -18 -1 -14 4 5 9 34 13 34 5z"/>
<path d="M700 1910 c-9 -6 -10 -10 -3 -10 6 0 15 5 18 10 8 12 4 12 -15 0z"/>
<path d="M670 1856 c7 -7 13 -7 20 0 6 6 3 10 -10 10 -13 0 -16 -4 -10 -10z"/>
<path d="M655 1797 c0 -20 5 -34 12 -34 7 0 10 4 7 9 -3 5 0 17 7 26 7 9 9 14
5 10 -5 -4 -14 -1 -20 7 -9 12 -11 9 -11 -18z"/>
<path d="M662 1590 c7 -11 16 -20 20 -20 5 0 3 9 -4 20 -7 11 -16 20 -20 20
-5 0 -3 -9 4 -20z"/>
<path d="M700 1500 c-9 -6 -10 -10 -3 -10 6 0 15 5 18 10 8 12 4 12 -15 0z"/>
<path d="M712 1473 c11 -3 15 -11 12 -21 -5 -14 -4 -14 4 -2 13 18 6 30 -16
29 -16 -1 -16 -2 0 -6z"/>
<path d="M758 1413 c-10 -2 -18 -9 -18 -14 0 -6 8 -5 20 1 11 6 20 13 20 15 0
3 -1 4 -2 4 -2 -1 -11 -3 -20 -6z"/>
<path d="M815 1311 c6 -11 4 -13 -8 -8 -23 9 -21 0 2 -13 15 -7 19 -7 17 5 -1
8 -6 18 -11 22 -4 5 -5 2 0 -6z"/>
<path d="M793 1120 c1 -21 10 -18 13 5 1 8 -2 15 -6 15 -5 0 -8 -9 -7 -20z"/>
<path d="M816 1089 c3 -5 13 -9 22 -10 11 0 12 -3 5 -6 -7 -2 -13 -9 -13 -15
0 -6 6 -6 15 2 18 15 13 26 -15 33 -11 3 -18 1 -14 -4z"/>
<path d="M870 1040 c0 -7 8 -19 18 -27 16 -14 16 -14 -3 -8 -16 5 -18 4 -7 -6
22 -23 32 4 11 30 -10 13 -19 18 -19 11z"/>
<path d="M1414 1021 c-3 -3 -11 -6 -16 -6 -6 0 -13 -6 -15 -12 -3 -7 2 -13 11
-13 8 0 14 -6 12 -12 -1 -7 -1 -10 1 -5 3 4 8 5 13 2 4 -3 14 3 21 12 10 12
10 14 2 9 -16 -9 -17 6 -3 20 7 7 6 11 -5 11 -8 0 -18 -3 -21 -6z m12 -21 c0
-12 -4 -16 -9 -11 -5 5 -6 14 -3 20 10 15 12 14 12 -9z"/>
<path d="M1325 1000 c-16 -6 -13 -8 13 -7 17 0 32 1 32 2 0 8 -28 11 -45 5z"/>
<path d="M1530 970 c0 -6 -4 -9 -9 -5 -5 3 -12 1 -16 -5 -4 -6 -10 -8 -15 -5
-5 3 -12 0 -16 -6 -4 -7 -3 -9 3 -6 6 4 17 -1 24 -10 12 -15 12 -16 -3 -10
-10 3 -20 2 -23 -4 -4 -5 -3 -9 2 -8 4 1 14 1 22 0 11 -1 11 -4 0 -18 -13 -16
-12 -17 4 -4 23 18 49 -1 28 -21 -10 -11 -11 -9 -5 7 6 16 4 18 -6 8 -11 -10
-11 -15 0 -28 10 -12 10 -18 0 -30 -9 -10 -9 -15 -1 -15 6 0 11 5 11 11 0 5 5
7 11 3 8 -4 8 -9 0 -17 -6 -6 -11 -16 -11 -21 0 -6 7 -2 15 8 8 10 12 23 9 27
-3 5 0 9 6 9 6 0 9 4 5 9 -3 5 -1 12 5 16 6 4 8 11 4 16 -3 5 -10 7 -15 4 -5
-4 -9 -1 -9 4 0 6 6 11 13 11 8 0 7 4 -3 10 -8 5 -11 10 -6 10 5 0 4 6 -1 13
-6 6 -9 20 -8 29 2 10 -1 20 -6 24 -5 3 -9 0 -9 -6z m16 -66 c2 -10 -2 -10
-17 -1 -11 7 -14 14 -8 18 7 4 4 9 -6 13 -9 3 -13 11 -9 18 8 12 36 -22 40
-48z m11 -55 c-8 -13 -13 -15 -18 -7 -10 15 -4 25 15 25 11 0 12 -4 3 -18z"/>
<path d="M876 918 c3 -5 10 -6 15 -3 13 9 11 12 -6 12 -8 0 -12 -4 -9 -9z"/>
<path d="M773 759 c-2 -18 16 -39 18 -22 0 4 2 15 4 24 1 9 -3 16 -9 16 -7 0
-13 -8 -13 -18z"/>
<path d="M1520 766 c13 -18 13 -19 0 -14 -12 4 -15 -5 -16 -48 0 -30 4 -54 8
-54 5 0 6 -5 3 -10 -4 -6 -1 -9 7 -8 8 2 12 -5 11 -17 -1 -19 -1 -19 11 -3 7
10 16 15 19 11 4 -3 1 -13 -6 -21 -10 -13 -9 -14 2 -7 11 6 13 4 8 -9 -5 -14
-3 -15 13 -6 12 7 21 7 25 0 3 -5 -1 -10 -10 -10 -11 0 -15 -5 -12 -14 3 -7 1
-18 -5 -24 -8 -8 -7 -16 2 -27 12 -15 11 -16 -5 -13 -10 1 -20 -3 -23 -11 -3
-10 0 -12 12 -8 12 5 16 3 13 -5 -2 -7 -9 -12 -14 -11 -5 1 -9 -7 -9 -17 0
-22 22 -35 31 -19 4 5 11 6 17 3 7 -4 6 -9 -2 -14 -14 -9 -5 -30 13 -30 8 0 8
3 -2 9 -7 5 -9 11 -4 14 4 3 16 -1 26 -8 16 -12 16 -13 1 -19 -15 -6 -15 -8
-2 -24 24 -26 26 -45 9 -62 -9 -8 -12 -12 -7 -8 17 13 29 9 17 -6 -9 -10 -9
-16 -1 -21 16 -10 23 1 25 37 1 17 10 37 20 44 11 8 13 14 6 14 -8 0 -10 7 -6
19 4 13 0 23 -12 30 -11 6 -13 11 -5 11 7 0 10 5 6 11 -5 8 -10 6 -16 -5 -7
-13 -5 -21 9 -32 10 -9 12 -12 4 -8 -9 5 -12 3 -7 -4 4 -7 2 -10 -7 -6 -8 3
-13 15 -13 27 1 12 -1 27 -5 32 -7 9 -9 17 -9 31 0 4 -6 1 -14 -5 -10 -9 -16
-8 -26 4 -10 12 -10 15 1 15 11 0 11 2 -1 10 -13 9 -13 10 0 10 13 0 13 1 0
10 -11 7 -11 10 -2 10 8 0 10 5 5 13 -11 17 -10 31 1 39 13 9 16 37 5 44 -6 4
-6 11 1 19 8 10 2 18 -27 36 -21 12 -42 23 -48 24 -13 1 -8 46 9 75 5 8 6 12
1 8 -4 -4 -15 -2 -24 5 -14 11 -15 10 -1 -7z m3 -41 c-3 -9 -8 -14 -10 -11 -3
3 -2 9 2 15 9 16 15 13 8 -4z m19 -50 c3 0 18 -10 31 -22 14 -12 29 -18 33
-15 5 4 3 0 -4 -9 -8 -11 -9 -18 0 -27 8 -8 7 -10 -3 -9 -8 2 -14 5 -14 8 0
12 -28 39 -35 34 -4 -3 -14 2 -21 11 -17 21 -21 47 -6 37 7 -4 15 -8 19 -8z
m86 -235 c7 6 10 7 7 4 -3 -4 0 -13 6 -20 17 -21 -7 -25 -26 -4 -14 15 -21 17
-32 9 -10 -9 -13 -8 -13 3 0 24 12 29 30 13 11 -10 20 -12 28 -5z m22 -81 c0
-5 4 -8 8 -5 19 12 30 -9 15 -29 -15 -19 -15 -19 -8 4 4 15 3 21 -3 17 -5 -3
-15 1 -22 9 -9 10 -9 15 -1 15 6 0 11 -5 11 -11z"/>
<path d="M1532 653 c6 -7 13 -11 16 -8 3 3 15 -3 26 -12 18 -15 18 -14 -2 8
-23 27 -62 38 -40 12z"/>
<path d="M760 716 c0 -8 4 -17 9 -20 5 -4 7 3 4 14 -6 23 -13 26 -13 6z"/>
<path d="M1479 728 c-4 -14 -4 -70 1 -73 3 -2 6 14 6 36 0 32 -3 48 -7 37z"/>
<path d="M790 679 c0 -5 5 -7 10 -4 6 3 10 8 10 11 0 2 -4 4 -10 4 -5 0 -10
-5 -10 -11z"/>
<path d="M1615 329 c-4 -6 -5 -12 -2 -15 2 -3 7 2 10 11 7 17 1 20 -8 4z"/>
<path d="M1624 228 c1 -13 -3 -29 -8 -37 -8 -11 -8 -13 0 -8 16 10 25 -18 11
-33 -9 -10 -9 -11 3 -4 17 9 40 14 40 8 0 -2 -12 -10 -27 -18 l-28 -15 30 3
c17 2 36 -1 44 -8 11 -8 13 -8 7 2 -4 6 -2 12 3 12 6 0 11 -7 11 -15 0 -8 5
-15 11 -15 5 0 7 5 3 12 -5 7 -3 8 5 4 7 -5 10 -15 7 -23 -3 -8 -1 -11 5 -8 5
4 16 1 24 -5 8 -6 19 -9 24 -6 5 4 12 2 16 -4 4 -6 11 -8 16 -5 5 4 9 2 9 -4
0 -18 36 -8 37 11 2 24 -16 33 -23 13 -6 -14 -10 -11 -25 12 -11 15 -19 24
-19 19 0 -4 -11 -1 -24 8 -15 9 -27 12 -31 6 -3 -6 -15 -5 -30 2 -13 6 -22 15
-18 21 3 6 -3 16 -13 24 -10 8 -19 24 -19 36 -1 12 -6 21 -13 20 -7 -2 -12 2
-12 7 0 6 -4 10 -9 10 -4 0 -7 -10 -7 -22z m31 -19 c-2 -10 1 -21 6 -24 5 -4
7 -11 3 -16 -3 -5 -10 -7 -15 -3 -5 3 -7 10 -4 15 4 5 0 9 -7 9 -9 0 -9 3 2
10 10 6 11 10 3 10 -7 0 -13 4 -13 8 0 5 6 9 14 9 8 0 13 -8 11 -18z m32 -57
c0 -10 -6 -19 -13 -19 -9 0 -9 5 -1 19 15 23 16 23 14 0z m133 -75 c0 -7 -4
-7 -9 2 -5 7 -14 10 -21 6 -13 -8 -52 23 -44 36 6 11 74 -30 74 -44z m31 -10
c-10 -9 -11 -8 -5 6 3 10 9 15 12 12 3 -3 0 -11 -7 -18z"/>
<path d="M1762 104 c10 -10 20 -16 22 -13 3 3 -5 11 -17 18 -21 13 -21 12 -5
-5z"/>
<path d="M706 114 c-4 -9 -4 -19 -1 -22 3 -3 5 0 5 7 0 8 6 11 16 7 14 -5 15
-4 4 9 -16 19 -16 19 -24 -1z"/>
<path d="M860 96 c-5 -5 -10 -15 -10 -20 0 -6 5 -3 11 7 6 9 14 15 19 12 5 -3
11 -2 14 3 7 12 -21 11 -34 -2z"/>
<path d="M1655 100 c-3 -6 1 -7 9 -4 18 7 21 14 7 14 -6 0 -13 -4 -16 -10z"/>
<path d="M1696 78 c3 -5 10 -6 15 -3 13 9 11 12 -6 12 -8 0 -12 -4 -9 -9z"/>
<path d="M713 65 c0 -7 6 -11 14 -8 7 3 13 6 13 8 0 2 -6 5 -13 8 -8 3 -14 -1
-14 -8z"/>
</g>
</svg>
